<svg width="52" height="52" viewBox="0 0 52 52" fill="none" xmlns="http://www.w3.org/2000/svg">
<g id="ci:chat-conversation">
<path id="Vector" d="M34.6667 17.3332H43.3333C43.908 17.3332 44.4591 17.5614 44.8654 17.9678C45.2717 18.3741 45.5 18.9252 45.5 19.4998V43.3332L38.2785 37.3337C37.8888 37.0102 37.3983 36.8332 36.8918 36.8332H19.5C18.9254 36.8332 18.3743 36.6049 17.9679 36.1986C17.5616 35.7922 17.3333 35.2411 17.3333 34.6665V28.1665M34.6667 17.3332V10.8332C34.6667 10.2585 34.4384 9.70744 34.0321 9.30111C33.6257 8.89478 33.0746 8.6665 32.5 8.6665H8.66667C8.09203 8.6665 7.54093 8.89478 7.1346 9.30111C6.72827 9.70744 6.5 10.2585 6.5 10.8332V34.6665L13.7215 28.6648C14.1115 28.3442 14.6012 28.1665 15.1082 28.1665H17.3333M34.6667 17.3332V25.9998C34.6667 26.5745 34.4384 27.1256 34.0321 27.5319C33.6257 27.9382 33.0746 28.1665 32.5 28.1665H17.3333" stroke="white" stroke-width="2" stroke-linecap="round" stroke-linejoin="round"/>
</g>
</svg>
