<svg width="52" height="52" viewBox="0 0 52 52" fill="none" xmlns="http://www.w3.org/2000/svg">
<g id="mdi:event-auto">
<path id="Vector" d="M23.27 26.5415L26 20.5832L28.7083 26.5415L34.6667 29.2498L28.7083 31.9798L26 37.9165L23.27 31.9798L17.3333 29.2498L23.27 26.5415ZM34.6667 6.49984V2.1665H39V6.49984H41.1667C42.315 6.49984 43.42 6.95484 44.2217 7.77817C45.045 8.57984 45.5 9.68484 45.5 10.8332V41.1665C45.5 42.3148 45.045 43.4198 44.2217 44.2215C43.42 45.0448 42.315 45.4998 41.1667 45.4998H10.8333C9.685 45.4998 8.58 45.0448 7.77833 44.2215C6.955 43.4198 6.5 42.3148 6.5 41.1665V10.8332C6.5 9.68484 6.955 8.57984 7.77833 7.77817C8.58 6.95484 9.685 6.49984 10.8333 6.49984H13V2.1665H17.3333V6.49984H34.6667ZM10.8333 17.3332V41.1665H41.1667V17.3332H10.8333Z" fill="white"/>
</g>
</svg>
