<svg width="25" height="25" viewBox="0 0 25 25" fill="none" xmlns="http://www.w3.org/2000/svg">
<path d="M24 0C24.5523 0 25 0.447715 25 1V17.75C25 18.3023 24.5523 18.75 24 18.75H9.33755C9.07234 18.75 8.81798 18.8554 8.63045 19.0429L4.83211 22.8412C4.20214 23.4712 3.125 23.025 3.125 22.1341V19.75C3.125 19.1977 2.67728 18.75 2.125 18.75H1C0.447715 18.75 0 18.3023 0 17.75V1C0 0.447715 0.447715 0 1 0H24ZM2.5625 1.5625C2.01021 1.5625 1.5625 2.01022 1.5625 2.5625V3.6875C1.5625 4.23978 2.01022 4.6875 2.5625 4.6875H22.4375C22.9898 4.6875 23.4375 4.23978 23.4375 3.6875V2.5625C23.4375 2.01022 22.9898 1.5625 22.4375 1.5625H2.5625ZM22.4375 17.1875C22.9898 17.1875 23.4375 16.7398 23.4375 16.1875V7.25C23.4375 6.69772 22.9898 6.25 22.4375 6.25H2.5625C2.01021 6.25 1.5625 6.69772 1.5625 7.25V16.1875C1.5625 16.7398 2.01022 17.1875 2.5625 17.1875H3.6875C4.23978 17.1875 4.6875 17.6352 4.6875 18.1875V18.3499C4.6875 19.2409 5.76464 19.687 6.39461 19.0571L7.97127 17.4804C8.1588 17.2929 8.41316 17.1875 8.67837 17.1875H22.4375ZM15.625 8.8125C15.625 8.26022 16.0727 7.8125 16.625 7.8125H20.875C21.4273 7.8125 21.875 8.26022 21.875 8.8125V14.625C21.875 15.1773 21.4273 15.625 20.875 15.625H16.625C16.0727 15.625 15.625 15.1773 15.625 14.625V8.8125ZM17.1875 13.0625C17.1875 13.6148 17.6352 14.0625 18.1875 14.0625H19.3125C19.8648 14.0625 20.3125 13.6148 20.3125 13.0625V10.375C20.3125 9.82271 19.8648 9.375 19.3125 9.375H18.1875C17.6352 9.375 17.1875 9.82272 17.1875 10.375V13.0625ZM3.125 10.1562C3.125 9.72478 3.47478 9.375 3.90625 9.375H13.2812C13.7127 9.375 14.0625 9.72478 14.0625 10.1562C14.0625 10.5877 13.7127 10.9375 13.2812 10.9375H3.90625C3.47478 10.9375 3.125 10.5877 3.125 10.1562ZM3.125 13.2812C3.125 12.8498 3.47478 12.5 3.90625 12.5H13.2812C13.7127 12.5 14.0625 12.8498 14.0625 13.2812C14.0625 13.7127 13.7127 14.0625 13.2812 14.0625H3.90625C3.47478 14.0625 3.125 13.7127 3.125 13.2812Z" fill="#084531"/>
</svg>
