<svg width="29" height="30" viewBox="0 0 29 30" fill="none" xmlns="http://www.w3.org/2000/svg">
<path fill-rule="evenodd" clip-rule="evenodd" d="M12.3283 0.632218C12.8754 0.221839 13.5409 0 14.2249 0C14.9089 0 15.5744 0.221839 16.1216 0.632218L27.1854 8.93008C27.578 9.22453 27.8966 9.60634 28.1161 10.0453C28.3356 10.4842 28.4498 10.9682 28.4498 11.459V26.4741C28.4498 27.3125 28.1168 28.1165 27.524 28.7094C26.9311 29.3022 26.1271 29.6352 25.2887 29.6352H3.16109C2.32272 29.6352 1.51868 29.3022 0.925862 28.7094C0.333042 28.1165 0 27.3125 0 26.4741V11.459C0 10.9682 0.114258 10.4842 0.333725 10.0453C0.553193 9.60634 0.871841 9.22453 1.26444 8.93008L12.3283 0.632218ZM14.2249 1.5L1.5 11V27.5H27V11L14.2249 1.5Z" fill="#FBFBDF"/>
<path d="M15.6468 9.43386C15.2695 9.05664 14.7579 8.84473 14.2243 8.84473C13.6908 8.84473 13.1791 9.05664 12.8018 9.43386L9.06616 13.1695C6.21753 16.0189 6.21753 20.6372 9.06616 23.4859C10.2545 24.678 11.8198 25.4206 13.4948 25.5868V27.8117C13.4948 28.0052 13.5717 28.1907 13.7085 28.3275C13.8453 28.4643 14.0309 28.5412 14.2243 28.5412C14.4178 28.5412 14.6033 28.4643 14.7402 28.3275C14.877 28.1907 14.9538 28.0052 14.9538 27.8117V25.5868C16.6288 25.4206 18.1942 24.678 19.3825 23.4859C22.2311 20.6372 22.2311 16.0189 19.3825 13.1695L15.6468 9.43459V9.43386ZM14.9538 24.1183V17.599C14.9538 17.4055 14.877 17.2199 14.7402 17.0831C14.6033 16.9463 14.4178 16.8695 14.2243 16.8695C14.0309 16.8695 13.8453 16.9463 13.7085 17.0831C13.5717 17.2199 13.4948 17.4055 13.4948 17.599V24.1183C12.4113 23.9819 11.3877 23.5442 10.5406 22.855C9.6934 22.1657 9.05666 21.2526 8.70273 20.2194C8.34881 19.1862 8.29191 18.0744 8.53851 17.0105C8.7851 15.9466 9.32529 14.9732 10.0976 14.201L13.8333 10.4661C13.8847 10.4147 13.9456 10.374 14.0127 10.3462C14.0798 10.3184 14.1517 10.3041 14.2243 10.3041C14.2969 10.3041 14.3689 10.3184 14.4359 10.3462C14.503 10.374 14.564 10.4147 14.6153 10.4661L18.3503 14.201C19.1228 14.9731 19.6632 15.9465 19.91 17.0105C20.1567 18.0744 20.1 19.1863 19.7461 20.2196C19.3922 21.2529 18.7555 22.1662 17.9083 22.8555C17.0611 23.5449 16.0375 23.9819 14.9538 24.1183Z" fill="#FBFBDF"/>
</svg>
