<svg width="52" height="52" viewBox="0 0 52 52" fill="none" xmlns="http://www.w3.org/2000/svg">
<g id="solar:chat-round-like-bold">
<path id="Vector" fill-rule="evenodd" clip-rule="evenodd" d="M47.6654 26.0002C47.6654 37.9667 37.9652 47.6668 25.9987 47.6668C22.5321 47.6668 19.2561 46.8522 16.3527 45.4048C15.5858 45.0084 14.7004 44.906 13.8632 45.1167L9.04022 46.408C8.56285 46.5354 8.06036 46.5349 7.5832 46.4067C7.10604 46.2785 6.671 46.0271 6.32174 45.6776C5.97248 45.3281 5.7213 44.8929 5.59339 44.4157C5.46549 43.9384 5.46538 43.436 5.59306 42.9587L6.88223 38.1357C7.09191 37.2989 6.98866 36.4143 6.59189 35.6483C5.10043 32.6511 4.32675 29.348 4.33206 26.0002C4.33206 14.0337 14.0322 4.3335 25.9987 4.3335C37.9652 4.3335 47.6654 14.0337 47.6654 26.0002ZM16.2487 24.0675C16.2487 27.0337 19.1066 30.145 21.7282 32.3745C23.5114 33.8912 24.4041 34.6517 25.9987 34.6517C27.5934 34.6517 28.4861 33.8933 30.2692 32.3745C32.8909 30.1428 35.7487 27.0337 35.7487 24.0675C35.7487 18.2673 30.3862 16.1028 25.9987 20.5835C21.6112 16.1028 16.2487 18.2673 16.2487 24.0675Z" fill="white"/>
</g>
</svg>
