<svg width="30" height="30" viewBox="0 0 30 30" fill="none" xmlns="http://www.w3.org/2000/svg">
<g clip-path="url(#clip0_818_3886)">
<path d="M17.1429 0H23.25C24.6107 0 25.7143 1.10354 25.7143 2.46422V8.57119C25.7143 9.31045 25.62 10.0283 25.4443 10.714H27.3386C28.8086 10.714 30 11.9054 30 13.3753V20.3566C30.0002 22.1725 29.4875 23.9515 28.5211 25.489C27.5547 27.0264 26.1738 28.2597 24.5373 29.0469C22.9009 29.8341 21.0754 30.1432 19.271 29.9386C17.4666 29.7341 15.7566 29.0242 14.3379 27.8906L12.5443 29.6863C12.3431 29.8872 12.0703 30 11.786 29.9998C11.5017 29.9996 11.2291 29.8864 11.0282 29.6852C10.8273 29.4841 10.7146 29.2113 10.7148 28.927C10.715 28.6427 10.8281 28.3701 11.0293 28.1692L12.8229 26.3757C12.0634 25.4276 11.4905 24.3442 11.1343 23.1829C9.85043 23.5852 8.4899 23.6796 7.16279 23.4585C5.83568 23.2374 4.57925 22.707 3.49517 21.9102C2.41108 21.1135 1.52979 20.0727 0.922585 18.8721C0.315384 17.6716 -0.000667511 16.3449 1.0585e-06 14.9996V8.88832C0.00113641 8.23551 0.261267 7.60983 0.723287 7.14863C1.18531 6.68742 1.81146 6.42839 2.46429 6.42839H8.57143C8.66143 6.42839 8.75143 6.42839 8.84143 6.43268C9.31644 4.59203 10.3896 2.96138 11.8922 1.79699C13.3949 0.632609 15.2419 0.000498246 17.1429 0ZM21.1157 21.1151L15.8657 26.365C16.9806 27.1986 18.3055 27.7055 19.6921 27.829C21.0788 27.9524 22.4724 27.6875 23.717 27.0639C24.9616 26.4402 26.0081 25.4825 26.7393 24.2979C27.4705 23.1134 27.8575 21.7486 27.8571 20.3566V13.3732C27.8566 13.236 27.8017 13.1047 27.7045 13.0079C27.6073 12.9111 27.4757 12.8568 27.3386 12.8568H20.3571C18.9652 12.8568 17.6007 13.2441 16.4164 13.9755C15.2321 14.7068 14.2747 15.7533 13.6513 16.9978C13.0279 18.2423 12.7632 19.6357 12.8867 21.0221C13.0102 22.4085 13.5171 23.7332 14.3507 24.8479L19.6007 19.598C19.8019 19.3971 20.0747 19.2844 20.359 19.2846C20.6433 19.2848 20.9159 19.3979 21.1168 19.5991C21.3177 19.8003 21.4304 20.073 21.4302 20.3573C21.43 20.6416 21.3169 20.9142 21.1157 21.1151ZM23.205 10.714C23.4407 10.0433 23.5714 9.32117 23.5714 8.57119V2.46422C23.5714 2.37897 23.5376 2.29722 23.4773 2.23694C23.417 2.17666 23.3353 2.1428 23.25 2.1428H17.1429C15.7523 2.14301 14.3992 2.59396 13.2866 3.42805C12.1739 4.26213 11.3616 5.4344 10.9714 6.7691C12.1732 7.12078 13.2836 7.73086 14.2249 8.55664C15.1662 9.38241 15.9156 10.4039 16.4207 11.5497C17.6592 10.9964 19.0007 10.7116 20.3571 10.714H23.205ZM14.5586 12.6511C14.0862 11.4482 13.2622 10.4155 12.1943 9.68775C11.1263 8.95999 9.86381 8.57089 8.57143 8.57119H2.46429C2.37904 8.57119 2.29728 8.60505 2.237 8.66533C2.17672 8.72561 2.14286 8.80736 2.14286 8.89261V14.9996C2.14257 16.0305 2.39021 17.0463 2.8649 17.9614C3.33959 18.8765 4.02739 19.664 4.8703 20.2575C5.71321 20.851 6.6865 21.2331 7.70807 21.3715C8.72964 21.51 9.76952 21.4007 10.74 21.053C10.6856 20.2959 10.7194 19.5351 10.8407 18.7859L6.74143 14.6867C6.64181 14.5871 6.56279 14.4689 6.50888 14.3387C6.45497 14.2086 6.42722 14.0691 6.42722 13.9282C6.42722 13.7873 6.45497 13.6478 6.50888 13.5177C6.56279 13.3875 6.64181 13.2692 6.74143 13.1696C6.84105 13.07 6.95931 12.991 7.08946 12.9371C7.21962 12.8832 7.35912 12.8554 7.5 12.8554C7.64088 12.8554 7.78038 12.8832 7.91054 12.9371C8.04069 12.991 8.15896 13.07 8.25857 13.1696L11.5371 16.4503C12.2059 14.9482 13.2456 13.6408 14.5586 12.6511Z" fill="#FBFBDF"/>
</g>
<defs>
<clipPath id="clip0_818_3886">
<rect width="30" height="30" fill="white"/>
</clipPath>
</defs>
</svg>
