<svg width="52" height="52" viewBox="0 0 52 52" fill="none" xmlns="http://www.w3.org/2000/svg">
<g id="arcticons:recipe-keeper">
<g id="Group">
<path id="Vector" d="M25.9987 26.5073H5.95703C5.95703 36.4913 18.5204 45.0757 18.5204 45.0757H25.9987" stroke="#084531" stroke-linecap="round" stroke-linejoin="round"/>
<path id="Vector_2" d="M11.7891 28.7885C11.7891 36.1465 20.0527 41.5761 20.0527 41.5761M25.9981 26.507H46.0397C46.0397 36.491 33.4763 45.0753 33.4763 45.0753H25.9981M15.2666 26.507C13.8084 21.048 23.5584 17.2954 32.3074 16.1362L33.1632 14.561L36.6126 18.7535L34.72 19.0612C33.7937 22.1054 29.1571 26.507 29.1571 26.507" stroke="#084531" stroke-linecap="round" stroke-linejoin="round"/>
<path id="Vector_3" d="M16.8008 26.5069C17.1128 23.6967 20.3714 20.5334 32.8038 16.7363" stroke="#084531" stroke-linecap="round" stroke-linejoin="round"/>
<path id="Vector_4" d="M33.1244 17.1276C28.4228 19.4828 22.9411 22.189 19.0996 26.5071M34.042 18.2402C29.1562 24.8767 25.9983 26.5071 25.9983 26.5071M23.2954 26.5071C26.242 24.7846 33.5762 17.6736 33.5762 17.6736M35.8317 17.8242L44.6619 10.6677C44.807 10.5504 44.9274 10.4056 45.0164 10.2416C45.1054 10.0777 45.1613 9.89777 45.1807 9.71223C45.2001 9.52669 45.1827 9.33914 45.1296 9.16031C45.0765 8.98148 44.9886 8.81488 44.871 8.67004C44.7536 8.52514 44.6088 8.40479 44.4448 8.31586C44.2809 8.22694 44.101 8.17117 43.9155 8.15176C43.73 8.13234 43.5425 8.14966 43.3637 8.20271C43.1849 8.25576 43.0183 8.34352 42.8734 8.46096L34.042 15.6164" stroke="#084531" stroke-linecap="round" stroke-linejoin="round"/>
<path id="Vector_5" d="M32.3086 16.1362L34.7201 19.0612" stroke="#084531" stroke-linecap="round" stroke-linejoin="round"/>
</g>
</g>
</svg>
