<svg width="52" height="52" viewBox="0 0 52 52" fill="none" xmlns="http://www.w3.org/2000/svg">
<g id="material-symbols:partner-exchange-rounded">
<path id="Vector" d="M27.5721 26.596L24.918 25.4043C24.7013 25.296 24.593 25.1335 24.593 24.9168C24.593 24.7001 24.7013 24.5376 24.918 24.4293L27.5721 23.2376L28.7638 20.5835C28.8721 20.3668 29.0346 20.2585 29.2513 20.2585C29.468 20.2585 29.6305 20.3668 29.7388 20.5835L30.9305 23.2376L33.5846 24.4293C33.8013 24.5376 33.9096 24.7001 33.9096 24.9168C33.9096 25.1335 33.8013 25.296 33.5846 25.4043L30.9305 26.596L29.7388 29.2501C29.6305 29.4668 29.468 29.5751 29.2513 29.5751C29.0346 29.5751 28.8721 29.4668 28.7638 29.2501L27.5721 26.596ZM20.368 14.3001L16.2513 12.4043C16.0346 12.296 15.9263 12.1335 15.9263 11.9168C15.9263 11.7001 16.0346 11.5376 16.2513 11.4293L20.368 9.53346L22.2638 5.4168C22.3721 5.20013 22.5346 5.0918 22.7513 5.0918C22.968 5.0918 23.1305 5.20013 23.2388 5.4168L25.1346 9.53346L29.2513 11.4293C29.468 11.5376 29.5763 11.7001 29.5763 11.9168C29.5763 12.1335 29.468 12.296 29.2513 12.4043L25.1346 14.3001L23.2388 18.4168C23.1305 18.6335 22.968 18.7418 22.7513 18.7418C22.5346 18.7418 22.3721 18.6335 22.2638 18.4168L20.368 14.3001ZM2.16798 41.1668V34.6668C2.16798 33.439 2.59264 32.4099 3.44198 31.5793C4.29131 30.7487 5.31109 30.3335 6.50131 30.3335H13.5971C14.3194 30.3335 15.0055 30.514 15.6555 30.8751C16.3055 31.2362 16.8291 31.7237 17.2263 32.3376C18.2735 33.746 19.5649 34.8474 21.1003 35.6418C22.6358 36.4362 24.2694 36.8335 26.0013 36.8335C27.7708 36.8335 29.4232 36.4362 30.9586 35.6418C32.4941 34.8474 33.7666 33.746 34.7763 32.3376C35.2458 31.7237 35.7968 31.2362 36.4295 30.8751C37.0621 30.514 37.7208 30.3335 38.4055 30.3335H45.5013C46.7291 30.3335 47.7583 30.7487 48.5888 31.5793C49.4194 32.4099 49.8346 33.439 49.8346 34.6668V41.1668C49.8346 41.7807 49.6266 42.2956 49.2106 42.7116C48.7946 43.1276 48.2804 43.3349 47.668 43.3335H36.8346C36.2208 43.3335 35.7058 43.1255 35.2898 42.7095C34.8738 42.2935 34.6665 41.7792 34.668 41.1668V38.4043C33.4041 39.3071 32.0405 39.9932 30.5773 40.4626C29.1141 40.9321 27.5888 41.1668 26.0013 41.1668C24.4485 41.1668 22.9319 40.9227 21.4513 40.4345C19.9708 39.9462 18.5985 39.2515 17.3346 38.3501V41.1668C17.3346 41.7807 17.1266 42.2956 16.7106 42.7116C16.2946 43.1276 15.7804 43.3349 15.168 43.3335H4.33464C3.72075 43.3335 3.20581 43.1255 2.78981 42.7095C2.37381 42.2935 2.16653 41.7792 2.16798 41.1668ZM8.66798 28.1668C6.86242 28.1668 5.3277 27.5348 4.06381 26.271C2.79992 25.0071 2.16798 23.4724 2.16798 21.6668C2.16798 19.8251 2.79992 18.281 4.06381 17.0345C5.3277 15.7879 6.86242 15.1654 8.66798 15.1668C10.5096 15.1668 12.0538 15.7901 13.3003 17.0366C14.5469 18.2832 15.1694 19.8266 15.168 21.6668C15.168 23.4724 14.5447 25.0071 13.2981 26.271C12.0516 27.5348 10.5082 28.1668 8.66798 28.1668ZM43.3346 28.1668C41.5291 28.1668 39.9944 27.5348 38.7305 26.271C37.4666 25.0071 36.8346 23.4724 36.8346 21.6668C36.8346 19.8251 37.4666 18.281 38.7305 17.0345C39.9944 15.7879 41.5291 15.1654 43.3346 15.1668C45.1763 15.1668 46.7204 15.7901 47.967 17.0366C49.2135 18.2832 49.8361 19.8266 49.8346 21.6668C49.8346 23.4724 49.2114 25.0071 47.9648 26.271C46.7183 27.5348 45.1749 28.1668 43.3346 28.1668Z" fill="#084531"/>
</g>
</svg>
