<svg width="45" height="45" viewBox="0 0 45 45" fill="none" xmlns="http://www.w3.org/2000/svg">
<g id="bi:bar-chart-steps" clip-path="url(#clip0_811_2159)">
<path id="Vector" d="M1.40625 0C1.77921 0 2.1369 0.148158 2.40062 0.411881C2.66434 0.675604 2.8125 1.03329 2.8125 1.40625V43.5938C2.8125 43.9667 2.66434 44.3244 2.40062 44.5881C2.1369 44.8518 1.77921 45 1.40625 45C1.03329 45 0.675604 44.8518 0.411881 44.5881C0.148158 44.3244 0 43.9667 0 43.5938V1.40625C0 1.03329 0.148158 0.675604 0.411881 0.411881C0.675604 0.148158 1.03329 0 1.40625 0ZM5.625 4.21875C5.625 3.84579 5.77316 3.4881 6.03688 3.22438C6.3006 2.96066 6.65829 2.8125 7.03125 2.8125H18.2812C18.6542 2.8125 19.0119 2.96066 19.2756 3.22438C19.5393 3.4881 19.6875 3.84579 19.6875 4.21875V7.03125C19.6875 7.40421 19.5393 7.7619 19.2756 8.02562C19.0119 8.28934 18.6542 8.4375 18.2812 8.4375H7.03125C6.65829 8.4375 6.3006 8.28934 6.03688 8.02562C5.77316 7.7619 5.625 7.40421 5.625 7.03125V4.21875ZM11.25 15.4688C11.25 15.0958 11.3982 14.7381 11.6619 14.4744C11.9256 14.2107 12.2833 14.0625 12.6562 14.0625H32.3438C32.7167 14.0625 33.0744 14.2107 33.3381 14.4744C33.6018 14.7381 33.75 15.0958 33.75 15.4688V18.2812C33.75 18.6542 33.6018 19.0119 33.3381 19.2756C33.0744 19.5393 32.7167 19.6875 32.3438 19.6875H12.6562C12.2833 19.6875 11.9256 19.5393 11.6619 19.2756C11.3982 19.0119 11.25 18.6542 11.25 18.2812V15.4688ZM16.875 26.7188C16.875 26.3458 17.0232 25.9881 17.2869 25.7244C17.5506 25.4607 17.9083 25.3125 18.2812 25.3125H35.1562C35.5292 25.3125 35.8869 25.4607 36.1506 25.7244C36.4143 25.9881 36.5625 26.3458 36.5625 26.7188V29.5312C36.5625 29.9042 36.4143 30.2619 36.1506 30.5256C35.8869 30.7893 35.5292 30.9375 35.1562 30.9375H18.2812C17.9083 30.9375 17.5506 30.7893 17.2869 30.5256C17.0232 30.2619 16.875 29.9042 16.875 29.5312V26.7188ZM22.5 37.9688C22.5 37.5958 22.6482 37.2381 22.9119 36.9744C23.1756 36.7107 23.5333 36.5625 23.9062 36.5625H43.5938C43.9667 36.5625 44.3244 36.7107 44.5881 36.9744C44.8518 37.2381 45 37.5958 45 37.9688V40.7812C45 41.1542 44.8518 41.5119 44.5881 41.7756C44.3244 42.0393 43.9667 42.1875 43.5938 42.1875H23.9062C23.5333 42.1875 23.1756 42.0393 22.9119 41.7756C22.6482 41.5119 22.5 41.1542 22.5 40.7812V37.9688Z" fill="#084531"/>
</g>
<defs>
<clipPath id="clip0_811_2159">
<rect width="45" height="45" fill="white"/>
</clipPath>
</defs>
</svg>
