<svg width="30" height="30" viewBox="0 0 30 30" fill="none" xmlns="http://www.w3.org/2000/svg">
<g clip-path="url(#clip0_818_3888)">
<path d="M20.5039 5.10434C20.8945 4.71357 21.5279 4.71357 21.9185 5.10434L24.899 8.08645C25.2893 8.47693 25.2893 9.10981 24.899 9.50029L21.9185 12.4824C21.5279 12.8732 20.8945 12.8732 20.5039 12.4824L17.5233 9.50029C17.133 9.10981 17.133 8.47693 17.5233 8.08645L20.5039 5.10434ZM8.31677 5.14241C8.86906 5.14241 9.31677 5.59013 9.31677 6.14241V10.3568C9.31677 10.9091 8.86905 11.3568 8.31677 11.3568H4.10559C3.55331 11.3568 3.10559 10.9091 3.10559 10.3568V6.14241C3.10559 5.59013 3.55331 5.14241 4.10559 5.14241H8.31677ZM23.8447 20.6784C24.397 20.6784 24.8447 21.1261 24.8447 21.6784V25.8928C24.8447 26.4451 24.397 26.8928 23.8447 26.8928H19.6335C19.0813 26.8928 18.6335 26.4451 18.6335 25.8928V21.6784C18.6335 21.1261 19.0813 20.6784 19.6335 20.6784H23.8447ZM8.31677 20.6784C8.86906 20.6784 9.31677 21.1261 9.31677 21.6784V25.8928C9.31677 26.4451 8.86905 26.8928 8.31677 26.8928H4.10559C3.55331 26.8928 3.10559 26.4451 3.10559 25.8928V21.6784C3.10559 21.1261 3.55331 20.6784 4.10559 20.6784H8.31677ZM21.9178 0.705781C21.5274 0.315846 20.8949 0.315846 20.5045 0.705781L13.1302 8.07091C12.7393 8.46129 12.739 9.09466 13.1295 9.48538L20.5039 16.8636C20.8945 17.2543 21.5279 17.2543 21.9185 16.8636L29.2928 9.48538C29.6833 9.09466 29.6831 8.46129 29.2922 8.07091L21.9178 0.705781ZM12.4224 3.03521C12.4224 2.48293 11.9746 2.03521 11.4224 2.03521H1C0.447715 2.03521 0 2.48293 0 3.03521V13.464C0 14.0163 0.447715 14.464 1 14.464H11.4224C11.9746 14.464 12.4224 14.0163 12.4224 13.464V3.03521ZM27.9503 18.5712C27.9503 18.0189 27.5026 17.5712 26.9503 17.5712H16.528C15.9757 17.5712 15.528 18.0189 15.528 18.5712V29C15.528 29.5523 15.9757 30 16.528 30H26.9503C27.5026 30 27.9503 29.5523 27.9503 29V18.5712ZM12.4224 18.5712C12.4224 18.0189 11.9746 17.5712 11.4224 17.5712H1C0.447715 17.5712 0 18.0189 0 18.5712V29C0 29.5523 0.447715 30 1 30H11.4224C11.9746 30 12.4224 29.5523 12.4224 29V18.5712Z" fill="#FBFBDF"/>
</g>
<defs>
<clipPath id="clip0_818_3888">
<rect width="30" height="30" fill="white"/>
</clipPath>
</defs>
</svg>
